# xmcd
#
# Track frame offsets:
#	150
#	11807
#	22812
#	34481
#	45976
#	58350
#	70035
#	82505
#	94877
#	107310
#	117943
#
# Disc length: 1744 seconds
#
# Revision: 1
# Processed by: cddbd v1.5.2PL0 Copyright (c) Steve Scherf et al.
# Submitted via: audiograbber 1.83.01
#
DISCID=7e06ce0b
DTITLE=Fats Domino - Fats
DYEAR=1971
DGENRE=Blues/Rock&Roll
TTITLE0=I'm Going To Cross That River
TTITLE1=Big Mouth
TTITLE2=It's A Sin To Tell A Lie
TTITLE3=Wait Till It Happens To You
TTITLE4=I'm Going To Help A Friend
TTITLE5=The Lady In Black
TTITLE6=Another Mule
TTITLE7=When You're Smiling
TTITLE8=These Old Shoes
TTITLE9=Lawdy Miss Clawdy
TTITLE10=Work My Way Up Steady
EXTD=
EXTT0=
EXTT1=
EXTT2=
EXTT3=
EXTT4=
EXTT5=
EXTT6=
EXTT7=
EXTT8=
EXTT9=
EXTT10=
PLAYORDER=
